<svg xmlns="http://www.w3.org/2000/svg" version="1.1" xmlns:xlink="http://www.w3.org/1999/xlink" viewBox="0 0 1422 800" style="overflow: hidden; display: block;" width="1422" height="800"><defs></defs><g id="two-0" transform="matrix(1 0 0 1 0 0)" opacity="1"></g><path d="M 588.5754138109018 309.9755969845762 Q 588.5754138109018 309.9755969845762 578.4339134917627 310.77462596700957 568.2924131726237 311.573654949443 561.4355503752181 313.13020550304094 554.5786875778124 314.6867560566389 545.9351369384897 320.6524453591213 537.291586299167 326.61813466160373 530.9732268012289 334.3195559755026 524.6548673032908 342.0209772894015 518.950462243814 352.1451817463317 513.2460571843371 362.2693862032619 510.7527892514712 370.57569640234794 508.25952131860527 378.882006601434 507.43266587905134 385.60694811700154 506.6058104394975 392.3318896325691 506.2423052117314 402.6886986087236 505.8787999839653 413.0455075848781 505.96351307500345 420.53503591304775 506.0482261660416 428.0245642412173 510.2683313888068 438.5485707077231 514.4884366115721 449.07257717422897 523.3992272783446 462.4072510714331 532.3100179451171 475.74192496863725 544.3702833633604 485.4795911798293 556.4305487816035 495.21725739102135 562.7308714935275 499.25357409722835 569.0311942054516 503.2898908034354 575.5728038827687 504.78220029022464 582.1144135600857 506.2745097770139 590.0025615571155 506.3610052787857 597.8907095541454 506.44750078055745 604.6123463579133 503.76762028045425 611.3339831616814 501.08773978035106 617.2400670492109 495.84325934529727 623.1461509367402 490.5987789102434 628.2012741775291 482.6365622579257 633.2563974183178 474.67434560560787 628.7427404333063 470.22317187473504 624.2290834482948 465.7719981438622 617.7261518841813 462.16876210280725 611.2232203200679 458.5655260617522 604.2531348866029 455.649782207077 597.2830494531379 452.73403835240185 589.8133520797408 450.358989878381 582.3436547063437 447.98394140436017 576.113886857447 447.9121059963801 569.8841190085503 447.84027058839996 567.4536383963115 447.43881493504034 565.0231577840726 447.03735928168066 562.848102492663 445.8808398795976 560.6730472012534 444.7243204775145 558.9811460938425 442.9338252133975 557.2892449864316 441.1433299492805 556.257640555584 438.9063241499275 555.2260361247362 436.66931835057454 554.9627376266785 434.22001711369 554.6994391286208 431.7707158768055 555.2320139856038 429.365561688444 555.7645888425868 426.96040750008245 557.0372763264984 424.8512206386644 558.3099638104098 422.7420337772464 560.1895132057275 421.1496466639336 562.0690626010451 419.55725955062076 564.3586845899262 418.6483955365264 566.6483065788073 417.739531522432 569.1082771346145 417.6093489097485 571.5682476904217 417.4791662970651 573.9410072465928 418.1412952397054 576.3137668027639 418.8034241823457 578.3508868074202 420.18853960523023 580.3880068120765 421.5736550281148 581.8762002629829 423.53673498083265 583.3643937138894 425.49981493355045 584.1478463638912 427.8353244268492 584.9312990138931 430.17083392014797 584.9279831637236 432.63424449356467 584.9246673135541 435.09765506698136 584.1349301336014 437.431046983202 583.3451929536487 439.76443889942266 581.8517201351242 441.7235054088633 580.3582473165998 443.68257191830395 578.3174058578415 445.0621982402829 576.2765643990833 446.4418245622618 573.9020309395532 447.09756345668177 571.527497480023 447.75330235110175 569.0678862997497 447.6164977826188 566.6082751194763 447.4796932141358 564.3211081583087 446.56466865718295 562.0339411971411 445.6496441002301 560.1586854396669 444.05220286746334 558.2834296821927 442.4547616346966 557.0164249012389 440.3421562448701 555.7494201202852 438.22955085504367 555.2233220508745 435.822971650146 554.6972239814637 433.41639244524833 554.9671152303398 430.9678089033075 555.2370064792159 428.51922536136664 556.274629361377 426.28500482558707 557.3122522435381 424.05078428980755 559.0089673693162 422.2648502400623 560.7056824950943 420.4789161903171 562.8838433429311 419.3282563930553 565.0620041907679 418.1775965957936 567.4935567449162 417.7826854355333 569.9251092990645 417.38777427527305 569.9228253618239 417.3877712010012 569.9205414245833 417.38776812672944 574.2244618499612 417.5168170270868 578.5283822753393 417.64586592744416 584.8088501389645 418.6245659053584 591.08931800259 419.6032658832727 597.6417638163175 421.6715007442334 604.194209630045 423.7397356051941 612.1825777574007 427.5123099158191 620.1709458847565 431.28488422644415 627.4905449876087 434.6672041475887 634.8101440904608 438.04952406873326 642.2116529168146 445.43818424788975 649.6131617431685 452.82684442704624 653.3189321472597 459.3348889772361 657.024702551351 465.842933527426 657.8180508861833 472.6521311693843 658.6113992210157 479.4613288113426 655.4649832496223 485.80810955709615 652.3185672782288 492.15489030284976 646.9262141729706 499.6894225512165 641.5338610677125 507.2239547995833 636.4886957021694 512.2989754893836 631.4435303366263 517.3739961791838 620.640433772587 522.3498231733392 609.8373372085478 527.3256501674948 603.6650366827765 528.525412525299 597.4927361570053 529.7251748831031 587.6495753797973 528.876262031617 577.8064146025893 528.0273491801308 567.7835889519591 524.3409272994021 557.760763301329 520.6545054186734 550.9792179985386 516.1397692992573 544.1976726957481 511.62503317984124 529.2777600991299 501.24257509544947 514.3578475025117 490.8601170110577 506.17034775176603 481.8676445101536 497.9828480010203 472.8751720092495 494.4950468654422 466.9207430569933 491.0072457298641 460.9663141047371 486.3785854268615 449.59589275129815 481.7499251238589 438.22547139785917 481.0135655617689 429.88166770050873 480.277205999679 421.5378640031583 480.6434064492846 411.80124461674944 481.0096068988903 402.0646252303406 481.4040083461956 395.8177834019757 481.79840979350087 389.57094157361087 482.5929014336683 381.7376442210703 483.3873930738357 373.90434686852973 486.2778691169583 365.10398635785 489.1683451600809 356.3036258471703 493.5421284850735 348.33568707589166 497.915911810066 340.367748304613 501.96518953755594 333.6980860559678 506.0144672650458 327.02842380732255 510.09811756626584 322.10189412867555 514.1817678674859 317.1753644500285 524.0940559989094 309.046466278894 534.0063441303329 300.9175681077595 541.5917069231109 296.763371781023 549.1770697158888 292.60917545428646 557.3624424073748 290.71308114475573 565.5478150988607 288.816986835225 575.5972235931982 287.1930948276681 585.6466320875357 285.5692028201113 587.1281633835138 285.5712841125334 588.6096946794919 285.57336540495555 590.0476745397808 285.92995092645634 591.4856544000697 286.28653644795713 592.7965073676263 286.97690143127295 594.1073603351829 287.6672664145887 595.2148995739426 288.6512868144525 596.3224388127023 289.63530721431624 597.162294090071 290.85579171885394 598.0021493674396 292.07627622339163 598.5255082552361 293.46229021585526 599.0488671430326 294.8483042083189 599.2253119981082 296.31929249034494 599.4017568531838 297.790280772371 599.2210326922714 299.26074943589396 599.0403085313588 300.73121809941694 598.5129190511818 302.1157034366232 597.9855295710049 303.5001887738295 597.1421266729305 304.7182244318709 596.2987237748563 305.9362600899123 595.1883260749478 306.9170537791143 594.0779283750393 307.8978474683163 592.7650722397871 308.5843954133801 591.452216104535 309.2709433584439 590.0132047942043 309.62334336054505 588.5741934838736 309.97574336264614 588.5748036473876 309.9756701736112 Z" fill="hsl(10, 75%, 40%)"></path><path d="M 664.9602981567383 372.1519256562171 Q 664.9602981567383 372.1519256562171 662.9522008472 371.82270414669847 660.9441035376616 371.4934826371798 659.1462545465181 370.54028768757644 657.3484055553747 369.58709273797314 655.9490401465848 368.10972411112766 654.549674737795 366.6323554842822 653.6953068390558 364.78549406541265 652.8409389403164 362.93863264654317 652.6210210961569 360.9156453137294 652.4011032519974 358.8926579809156 652.8386609187537 356.9053520419199 653.27621858551 354.9180461029242 654.325439359969 353.1744930141573 655.3746601344279 351.43093992539036 656.9256903245362 350.1136901554994 658.4767205146443 348.79644038560843 660.3671668500652 348.04341033322123 662.2576131854862 347.29038028083403 664.289545435872 347.1804123912161 666.3214776862577 347.07044450159816 668.282152008615 347.61505244182126 670.2428263309721 348.1596603820443 671.9269596061822 349.30182355700447 673.6110928813922 350.4439867319647 674.8423559109726 352.06412035574186 676.073618940553 353.68425397951904 676.7230981602848 355.61272963402996 677.3725773800167 357.54120528854094 677.3722721441482 359.57611106369023 677.3719669082795 361.61101683883953 676.7219091750866 363.53929756280604 676.0718514418936 365.46757828677255 674.8401024276402 367.0873424587404 673.6083534133868 368.7071066307082 671.9238775650153 369.8487645142961 670.239401716644 370.99042239788395 668.2785641001376 371.5344421113118 666.3177264836312 372.07846182473963 664.2858273150487 371.96788436040424 662.2539281464663 371.8573068960689 660.3637078051277 371.10370974367595 658.4734874637892 370.35011259128294 656.9228525184024 369.03239757161816 655.3722175730156 367.71468255195344 654.3235199116905 365.9708147754188 653.2748222503652 364.2269469988841 652.8378607950717 362.2395098820191 652.4008993397781 360.25207276515414 652.6214240702321 358.22915149872705 652.8419488006862 356.20623023229996 653.6968707193962 354.359625206905 654.5517926381063 352.51302018151006 655.9516011945061 351.0360714307625 657.3514097509059 349.5591226800149 659.1495446196268 348.6064671279946 660.9476794883476 347.6538115759743 662.9558754739729 347.3251925104545 664.9640714595982 346.9965734449346 664.9621848081683 346.9965731619369 664.9602981567383 346.99657287893916 666.477097725204 347.08268245759956 667.9938972936696 347.16879203625996 669.4460106168906 347.6154044934964 670.8981239401116 348.0620169507328 672.2011541235152 348.84317514954677 673.5041843069185 349.6243333483607 674.5823991750225 350.69463633753446 675.6606140431264 351.76493932670826 676.4513476971368 353.06218104622315 677.2420813511472 354.3594227657381 677.6993763139408 355.80820746590524 678.1566712767342 357.2569921660724 678.2539495435872 358.7731164120472 678.3512278104402 360.28924065802204 678.0828355639126 361.7845872373937 677.814443317385 363.2799338167654 677.1959795274554 364.66759311608223 676.5775157375258 366.05525241539914 675.6449255487232 367.25457361098603 674.7123353599206 368.4538948065729 673.5198209578359 369.39517329419243 672.3273065557513 370.33645178181195 670.9441769334637 370.96498041153785 669.561047311176 371.59350904126376 668.0676900273188 371.87275769960513 666.5743327434617 372.1520063579465 665.7673154501 372.1519660070818 Z" fill="hsl(70, 69%, 50%)"></path><path d="M 680.8886449866294 395.84514193609414 Q 680.8886449866294 395.84514193609414 684.8184325373297 401.97648195830243 688.7482200880299 408.1078219805108 692.3537932480838 413.88408543300955 695.9593664081376 419.66034888550826 700.0926421944094 429.6691413446885 704.2259179806813 439.67793380386877 704.5489510618659 448.2958036668899 704.8719841430503 456.91367352991114 705.0802211776731 463.2751182060381 705.2884582122958 469.63656288216504 704.2198282003706 476.7686945668768 703.1511981884454 483.90082625158846 700.9833832990084 489.8878533473987 698.8155684095715 495.8748804432089 695.8604157857035 501.79098764923333 692.9052631618355 507.7070948552577 688.4625680836714 514.7260392265929 684.0198730055073 521.7449835979281 676.620771232704 526.5399602133598 669.2216694599007 531.3349368287916 666.715620890966 531.7324434299086 664.2095723220311 532.1299500310256 661.7077873635975 531.7064373989275 659.2060024051639 531.2829247668294 656.9704186027864 530.0827347858935 654.734834800409 528.8825448049575 652.9995183683334 527.0313376830071 651.2642019362579 525.1801305610567 650.2108409630016 522.8717281724312 649.1574799897454 520.5633257838056 648.8963616472686 518.039418467953 648.6352433047919 515.5155111521005 649.1937067524805 513.0403526712378 649.7521702001691 510.56519419037494 651.0717441676301 508.39793429082647 652.3913181350911 506.230674391278 654.3338428795975 504.5982257566277 656.2763676241038 502.96577712197734 658.6384602921291 502.0390575551976 661.0005529601546 501.1123379884179 663.5349018258246 500.9883752727809 666.0692506914947 500.86441255714385 668.5105087595708 501.5561856216996 670.9517668276469 502.2479586862554 673.0443337339718 503.6830387085347 675.1369006402969 505.118118730814 676.6616840773944 507.1462524536598 678.1864675144919 509.1743861765056 678.9838222539943 511.58322746376064 679.7811769934966 513.9920687510157 679.7676197836967 516.5294112840321 679.7540625738967 519.0667538170485 678.9310128582392 521.466937162826 678.1079631425816 523.8671205086034 676.56159444356 525.8788448372522 675.0152257445384 527.8905691659011 672.9074432731418 529.3032064091681 670.7996608017452 530.7158436524351 668.3511499391295 531.38149031805 665.9026390765139 532.0471369836652 663.369759556339 531.8960996900248 660.8368800361642 531.7450623963844 658.4848250128077 530.7931547880027 656.1327699894512 529.841247179621 654.2078002447407 528.1881342343747 652.2828305000303 526.5350212891284 650.9864908743798 524.3537843687643 649.6901512487292 522.1725474484001 649.1581688431445 519.6915626342709 648.6261864375599 517.2105778201416 648.9142599503357 514.689604877203 649.2023334631114 512.1686319342645 650.2803015214158 509.87161739511436 651.3582695797202 507.57460285596426 653.1132686432929 505.74204474920464 654.8682677068656 503.9094866424451 657.1165489104758 502.733254285602 659.3648301140861 501.557021928759 659.3625967704518 501.5577611917155 659.3603634268176 501.55850045467196 659.4701054915229 502.52936921349334 659.5798475562281 503.5002379723147 664.6368883609159 496.8757752498904 669.6939291656039 490.2513125274661 672.3631219280837 483.2304250590749 675.0323146905636 476.2095375906837 676.0096850194714 469.7657303150673 676.987055348379 463.3219230394509 676.9964691157525 456.1324841642774 677.0058828831258 448.9430452891039 675.4310895906817 441.46951256995044 673.8562962982376 433.99597985079697 670.6120840645765 428.17507335042626 667.3678718309154 422.3541668500556 663.2213028752681 416.3709370175276 659.0747339196206 410.3877071849996 658.3631190420999 408.9769119778241 657.6515041645793 407.56611677064853 657.2982047612093 406.0260134033135 656.9449053578394 404.48591003597846 656.9704552065439 402.9060093885549 656.9960050552482 401.3261087411313 657.3989191976198 399.79823471347873 657.8018333399914 398.2703606858262 658.5586943871447 396.88331338821865 659.3155554342981 395.4962660906112 660.3823745866116 394.3306607771558 661.449193738925 393.16505546370047 662.763967417142 392.28863716998103 664.078741095359 391.41221887626153 665.565054591527 390.8759250746873 667.051368087695 390.339631273113 668.6228367915827 390.1746313846291 670.1943054954704 390.0096314961452 671.7595955721728 390.22551532202283 673.3248856488751 390.4413991479004 674.7930223655892 391.02561951003634 676.2611590823033 391.60983987217224 677.5468142640736 392.5284418556696 678.832469445844 393.4470438391669 679.8609207530999 394.64663825358446 680.8893720603559 395.8462326680021 680.8890085234926 395.8456873020481 Z" fill="hsl(70, 69%, 50%)"></path><path d="M 794.4012952028776 395.0032430378195 Q 794.4012952028776 395.0032430378195 789.1495691537373 394.2147972087875 783.8978431045971 393.4263513797555 777.4904455691361 393.5871248710272 771.0830480336751 393.7478983622988 768.2820410633786 401.1002267142477 765.4810340930821 408.45255506619657 761.4641794026534 418.0622055811626 757.4473247122245 427.6718560961286 756.8707832646138 434.7668878336288 756.2942418170031 441.861919571129 764.5601527853802 442.1229610950051 772.8260637537572 442.3840026188812 780.7455105133201 442.4318367146026 788.6649572728832 442.4796708103239 796.3640675546803 444.48659716168606 804.0631778364775 446.49352351304816 812.97102654474 454.4132065374705 821.8788752530024 462.33288956189284 827.6834294536939 471.9858351722989 833.4879836543853 481.63878078270494 836.3441954828165 488.2994995622927 839.2004073112477 494.9602183418805 836.6550827551214 507.8952513777672 834.109758198995 520.8302844136539 826.9837501336953 529.1486765076379 819.8577420683955 537.4670686016219 809.4264346374827 543.8939589515251 798.9951272065698 550.3208493014282 792.4135759267388 552.7842227211913 785.8320246469078 555.2475961409546 779.2691471411523 556.7534106927909 772.7062696353968 558.2592252446273 763.6366591795702 558.3338514320708 754.5670487237437 558.4084776195144 746.7618108641873 558.3850060192958 738.956573004631 558.3615344190773 732.4514908877386 553.1712560646631 725.9464087708463 547.980977710249 725.1767998911387 541.7455971703961 724.407191011431 535.5102166305431 724.1897623568728 528.8483890519014 723.9723337023147 522.1865614732599 724.3605931877173 519.8182036222541 724.7488526731199 517.4498457712484 725.8730302266547 515.3294474203356 726.9972077801895 513.2090490694226 728.7396017152473 511.55861648567384 730.4819956503051 509.9081839019251 732.660176861938 508.900517812531 734.8383580735709 507.8928517231369 737.2242704139371 507.63345503365497 739.6101827543033 507.374058344173 741.9540205715466 507.8900899564661 744.2978583887899 508.40612156875915 746.3542212447319 509.64355283680106 748.4105841006739 510.8809841048429 749.9641702614704 512.7102556482196 751.5177564222669 514.5395271915961 752.4059050067756 516.769113796835 753.2940535912842 518.998700402074 753.4237752082586 521.395163763053 753.5534968252329 523.7916271240322 752.9112095871324 526.104056894252 752.268922349032 528.4164866644719 750.9218738992333 530.4027708365683 749.5748254494347 532.3890550086646 747.664052116218 533.841229105491 745.7532787830013 535.2934032023174 743.4788390387494 536.0594242125993 741.2043992944975 536.8254452228812 738.8044275808276 536.8251105446321 736.4044558671576 536.8247758663831 734.1302298560217 536.0581205405042 731.8560038448858 535.2914652146253 729.9456355999872 533.8387582561134 728.0352673550886 532.3860512976014 726.6887729359566 530.39939150849 725.3422785168246 528.4127317193787 724.7006362445823 526.100122904015 724.0589939723399 523.7875140886515 724.189383962268 521.3910870004738 724.3197739521961 518.994659912296 725.2085443379297 516.7653211000315 726.0973147236632 514.5359822877671 727.6514110112033 512.7071441135483 729.2055072987434 510.8783059393296 731.262215196543 509.64144824276366 733.3189230943426 508.4045905461977 735.6629047425839 507.88921265461374 738.0068863908252 507.3738347630297 740.3927262921864 507.63389687772315 742.7785661935475 507.8939589924165 744.9564662805553 508.9022325413291 747.1343663675632 509.91050609024177 748.8762999261983 511.56142456664406 750.6182334848334 513.2123430430464 751.7418196116807 515.333054846659 752.8654057385281 517.4537666502716 753.253004669509 519.8222326954426 753.6406036004898 522.1906987406137 753.6406039107849 522.1884736203547 753.6406042210799 522.1862485000956 750.2020573672538 526.6514423897258 746.7635105134277 531.1166362793559 756.5833687489585 530.884234419269 766.4032269844892 530.6518325591819 775.5939165104946 527.7719208581036 784.7846060365002 524.8920091570252 792.2605713071594 520.1162493859044 799.7365365778185 515.3404896147837 804.8539062678984 508.52941454393095 809.9712759579784 501.71833947307823 806.8508533106836 495.3225032262418 803.7304306633889 488.9266669794054 797.605560949529 481.04683844154954 791.4806912356692 473.1670099036936 784.5240077122057 473.1282643976007 777.5673241887424 473.08951889150774 770.74586729265 472.77133074524613 763.9244103965575 472.4531425989846 756.1673609393084 470.9184053524814 748.4103114820593 469.38366810597813 741.0775239431281 464.5514961064519 733.7447364041968 459.7193241069257 730.0959882273241 452.58660557750994 726.4472400504516 445.4538870480942 726.2473250540158 438.33269429653217 726.0474100575802 431.2115015449702 728.4189714983047 424.01747642561776 730.790532939029 416.8234513062653 734.3289187971181 408.03020735105423 737.8673046552071 399.23696339584313 743.4195738382068 389.563843017094 748.9718430212064 379.89072263834487 753.9496823334852 374.9185710960654 758.9275216457639 369.94641955378603 767.0063806081935 367.9934042414791 775.0852395706231 366.04038892917214 781.4889084991263 366.7393819033705 787.8925774276295 367.4383748775688 793.1401113272198 368.26520385932776 798.3876452268099 369.09203284108673 799.9089723719123 369.5187843796491 801.4302995170146 369.94553591821153 802.8052853442922 370.7239748258186 804.1802711715698 371.50241373342567 805.3290014401377 372.58729710419254 806.4777317087057 373.6721804749594 807.333442161382 375.00045483640406 808.1891526140583 376.32872919784865 808.7021093191281 377.8231951816752 809.2150660241979 379.31766116550176 809.3554559138613 380.89146033851307 809.4958458035246 382.4652595115243 809.2555094107981 384.0269225918403 809.0151730180718 385.5885856721562 808.4080787053929 387.0473487281745 807.8009843927141 388.50611178419274 806.86241651006 389.7771914385578 805.9238486274058 391.0482710929229 804.7083567842146 392.05779213640164 803.4928649410235 393.06731317988044 802.0710935803313 393.7566022019938 800.649322219639 394.44589122410713 799.1039047597308 394.77488671450374 797.5584872998224 395.1038822049003 795.9792434760791 395.05346293022046 794.3999996523357 395.00304365554064 794.4006474276066 395.0031433466801 Z" fill="hsl(341, 100%, 85%)"></path><path d="M 876.459923436304 325.25414150309274 Q 876.459923436304 325.25414150309274 874.4858060264663 334.47956861395835 872.5116886166286 343.7049957248239 871.4367966306984 350.0614165451081 870.3619046447683 356.4178373653923 869.3572567270422 365.1341820469092 868.3526088093162 373.8505267284261 868.4212771338082 380.35084318902966 868.4899454583002 386.8511596496332 869.1005244172093 394.0762730522412 869.7111033761184 401.30138645484925 871.6238974930245 408.36829770102435 873.5366916099305 415.43520894719944 875.4213769480682 422.59371067338196 877.3060622862058 429.7522123995645 879.2018996385605 435.7858510494066 881.097736990915 441.81948969924866 883.2650496906161 447.9977980026513 885.4323623903173 454.1761063060539 887.5978086782238 461.77248216813905 889.7632549661305 469.36885803022415 890.9411042359416 476.0170696273576 892.1189535057526 482.6652812244911 892.7320741774658 490.0701086322829 893.3451948491789 497.4749360400747 898.7794313863817 502.6072767124533 904.2136679235845 507.7396173848319 911.7908841255864 507.69972551787384 919.3681003275885 507.65983365091574 925.7300560479916 503.90136597711955 932.0920117683949 500.14289830332336 930.328455089488 500.43371087072086 928.5648984105812 500.72452343811835 930.5297443221925 498.8955275293037 932.4945902338037 497.06653162048906 934.9405953250848 495.9606814569212 937.3866004163658 494.85483129335324 940.057667308577 494.58790967907373 942.7287342007882 494.32098806479416 945.3452014852217 494.92094176327856 947.9616687696553 495.52089546176296 950.2495916309507 496.9249091624076 952.5375144922461 498.3289228630522 954.2573468028729 500.3899959607759 955.9771791134996 502.4510690584996 956.9488539765434 504.95340665590027 957.9205288395872 507.45574425330096 958.04231164039 510.1373509433778 958.1640944411929 512.8189576334546 957.4232344883633 515.3990684878811 956.6823745355337 517.9791793423076 955.1564400617008 520.1876560735423 953.630505587868 522.3961328047768 951.4792623352498 524.001747316078 949.3280190826317 525.6073618273791 946.7767027876505 526.4420058555727 944.2253864926691 527.2766498837661 941.5411206448914 527.2529359787754 938.8568547971137 527.2292220737849 936.320682739379 526.3496330877224 933.7845106816444 525.4700441016599 931.6619702978822 523.8266732335553 929.5394299141201 522.1833023654507 928.0527517428065 519.9482109790024 926.5660735714929 517.713119592554 925.8709132096093 515.1203223459298 925.1757528477257 512.5275250993056 925.3448937686658 509.8484885486592 925.514034689606 507.16945199801273 926.5297677942986 504.6846719773937 927.5455008989911 502.1998919567746 929.3014786632473 500.16952559026 931.0574564275036 498.13915922374537 933.3698275158727 496.7757864058739 935.6821986042418 495.41241358800244 938.3088571533649 494.85877981270073 940.9355157024879 494.3051460373991 943.6014498689012 494.6192169070864 946.2673840353145 494.93328777677374 948.6934698080563 496.08217998848716 951.1195555807982 497.2310722002006 953.051781139038 499.0944964360956 954.9840066972779 500.95792067199056 956.22006751501 503.3407759226727 957.4561283327421 505.7236311733548 957.8666085160615 508.376431865065 958.277088699381 511.02923255677524 957.8190108647381 513.6742297568201 957.3609330300951 516.3192269568649 956.0822580476977 518.6794887601882 954.8035830653001 521.0397505635115 954.8051067073459 521.0377826621476 954.8066303493918 521.0358147607838 951.4526887144257 524.6993493000966 948.0987470794597 528.3628838394094 942.5043577788067 531.6835507131561 936.9099684781538 535.004217586903 929.7331200879647 537.5528845258345 922.5562716977756 540.1015514647661 914.8142652142585 539.9504641815805 907.0722587307415 539.7993768983949 900.2665944759625 538.8967312812044 893.4609302211835 537.9940856640138 886.8103841154875 535.0060263516809 880.1598380097917 532.0179670393479 874.3541625724246 526.4062686122547 868.5484871350575 520.7945701851615 865.9493358408515 514.8117133888816 863.3501845466456 508.82885659260165 862.728251445056 500.4968267003542 862.1063183434666 492.16479680810664 860.8337191760767 484.4074444745976 859.5611200086868 476.6500921410885 858.2731520035138 470.3965047102074 856.9851839983409 464.14291727932624 854.9960555537563 457.7634765150648 853.0069271091717 451.3840357508033 851.5518612981122 444.5072465338202 850.0967954870526 437.63045731683707 847.5831954744531 427.60815503489755 845.0695954618535 417.5858527529581 843.8754027432299 411.4421887605987 842.6812100246061 405.29852476823925 842.5246023016766 395.92990479311516 842.367994578747 386.56128481799107 842.939666366156 378.92154866449766 843.5113381535649 371.2818125110043 844.9782086901283 361.80310262789027 846.4450792266917 352.3243927447762 847.5507819139184 345.9403297660797 848.6564846011449 339.55626678738315 849.9129168128892 330.20602480034836 851.1693490246334 320.8557828133135 851.6162424417623 319.37458203873143 852.0631358588911 317.8933812641493 852.8515281528889 316.5621761516063 853.6399204468867 315.2309710390634 854.7239902205838 314.12713129224693 855.808059994281 313.0232915454305 857.1248010614955 312.21097238228924 858.44154212871 311.39865321914795 859.9144254367485 310.9250666676103 861.387308744787 310.4514801160727 862.9307302465832 310.34415104876535 864.4741517483792 310.23682198145804 865.9984077137312 310.5019883688158 867.5226636790834 310.76715475617357 868.9391642796681 311.3894051153044 870.355664880253 312.01165547443526 871.5820830346106 312.95482458523014 872.8085011889683 313.897993696025 873.7735574163445 315.10726452545 874.7386136437207 316.31653535487493 875.3862188308374 317.7216250255064 876.033824017954 319.12671469613787 876.3263393209083 320.6459593303009 876.6188546238626 322.16520396446396 876.5392790395031 323.71030499263964 876.4597034551435 325.2554060208153 876.4598134457237 325.254773761954 Z" fill="hsl(190, 100%, 70%)"></path><path d="M 869.4329833984375 397.1254574540931 Q 869.4329833984375 397.1254574540931 875.8940826416016 397.17698582703383 882.3551818847657 397.2285141999745 889.847851955843 396.98282847519727 897.3405220269203 396.73714275042005 903.8071819294348 396.44320380086583 910.2738418319492 396.1492648513116 913.9128205072735 396.0528716778795 917.5517991825978 395.95647850444743 919.8161787836357 396.3277167242468 922.0805583846735 396.6989549440462 924.1078568437445 397.7738008638339 926.1351553028155 398.8486467836217 927.7131139361002 400.5145637518642 929.2910725693847 402.1804807201068 930.2544786914375 404.26304679046984 931.2178848134902 406.3456128608329 931.4658695490175 408.62678281600535 931.7138542845449 410.9079527711778 931.2204535662756 413.14888751468266 930.7270528480063 415.38982225818756 929.5439258613883 417.35589533083066 928.3607988747704 419.3219684034737 926.6118193276177 420.8073314355563 924.862839780465 422.29269446763897 922.7311262930505 423.14182955760435 920.5994128056358 423.99096464756974 918.3081563428091 424.11496712734856 916.0168998799825 424.23896960712744 913.8059955982349 423.62485638435345 911.5950913164871 423.01074316157946 909.6960214777395 421.7228120527872 907.7969516389918 420.434880943995 906.4085493566668 418.6079786762558 905.0201470743416 416.78107640851664 904.2877784339012 414.6064801315182 903.5554097934607 412.43188385451975 903.5557539848857 410.13727437250145 903.5560981763106 407.84266489048315 904.2891191626677 405.66828842193036 905.0221401490248 403.4939119533776 906.411090439544 401.6674262885275 907.8000407300631 399.8409406236774 909.6994968626794 398.5535792937851 911.5989529952958 397.26621796389287 913.8100414115169 396.65276804002855 916.0211298277379 396.0393181161642 918.3123489867146 396.16400796729147 920.6035681456913 396.28869781841877 922.7350267966556 397.1384723842097 924.86648544762 397.98824695000064 926.6150193071657 399.4741346090982 928.3635531667113 400.96002226819576 929.5460902781756 402.9264501904562 930.72862738964 404.8928781127167 931.2213558052933 407.13396077559275 931.7140842209466 409.3750434384689 931.4654151456023 411.65613889556914 931.2167460702578 413.93723435266935 930.2527152217467 416.01951130748466 929.2886843732355 418.1017882622999 927.7102260358761 419.7672317679934 926.1317676985166 421.4326752736868 924.1041468769029 422.5069129555779 922.0765260552893 423.58115063746897 919.8120351846842 423.9517095266925 917.5475443140792 424.322268415916 917.5496717483386 424.3222687350312 917.5517991825978 424.3222690541463 913.9128205072735 424.2258758807142 910.2738418319492 424.12948270728214 903.8071819294348 423.8355437577279 897.3405220269203 423.5416048081737 889.847851955843 423.2959190833965 882.3551818847657 423.05023335861927 875.8940826416016 423.1017617315599 869.4329833984375 423.1532901045006 867.8757177842492 422.9641977474314 866.318452170061 422.7751053903621 864.8516949065372 422.21881837583163 863.3849376430135 421.66253136130115 862.0939367312254 420.771381116731 860.8029358194374 419.88023087216084 859.7627242930355 418.70601109163596 858.7225127666337 417.5317913111111 857.9935477684069 416.14274770344605 857.2645827701799 414.7537040957811 856.8892317800751 413.2305679407173 856.5138807899702 411.70743178565357 856.5139592251683 410.13872782808767 856.5140376603662 408.57002387052177 856.8895409622095 407.0469252581727 857.2650442640528 405.52382664582353 857.9941481629954 404.1348559416034 858.7232520619381 402.74588523738333 859.7635810051166 401.571769483882 860.8039099482952 400.39765373038074 862.0949999686526 399.5066325903573 863.38608998901 398.61561145033386 864.8529028739013 398.0594711143109 866.3197157587927 397.503330778288 867.8770002744302 397.31439414872534 869.4342847900679 397.1254575191627 869.4336340942527 397.1254574866279 Z" fill="hsl(190, 100%, 70%)"></path><path d="M 431.0400787899113 490.52450186827576 Q 431.0400787899113 490.52450186827576 440.67086032224233 495.4926177355478 450.3016418545734 500.4607336028198 457.12954835081473 504.05749890477387 463.95745484705606 507.654264206728 470.7351995588058 511.03413109422877 477.5129442705556 514.4139979817296 483.8925298932405 517.9010324423439 490.2721155159254 521.3880669029583 499.70585240644607 526.1698533393642 509.1395892969668 530.95163977577 521.8815754826197 536.9131692179037 534.6235616682726 542.8746986600376 549.9276224940893 548.6990289416591 565.231683319906 554.5233592232806 583.3503026836199 560.3014627323192 601.4689220473339 566.0795662413578 624.0925055361151 572.6411744757501 646.7160890248964 579.2027827101423 665.7948618513794 583.1994434554135 684.8736346778624 587.1961042006849 700.7665938494968 590.5731221194264 716.6595530211312 593.950140038168 731.68853323039 596.1828216528618 746.7175134396488 598.4155032675556 771.4725589586517 599.7727727623985 796.2276044776546 601.1300422572415 822.5194480091336 601.7288662740103 848.8112915406127 602.3276902907792 873.7723224028199 602.9977538227034 898.7333532650271 603.6678173546277 917.6456056177442 603.1520646061467 936.5578579704613 602.6363118576658 952.2224616628608 601.6201081722484 967.8870653552603 600.6039044868311 977.1801170685363 599.080976179972 986.4731687818123 597.558047873113 995.5734594443193 594.5322565454787 1004.6737501068263 591.5064652178444 1014.5185852756106 584.1658840649657 1024.363420444395 576.8253029120868 1029.0660119203203 572.4777277076722 1033.7686033962457 568.1301525032576 1041.1832245650626 560.9761256257493 1048.5978457338795 553.8220987482412 1052.6024323735546 548.956326635533 1056.6070190132298 544.0905545228247 1056.2273029451835 545.2071507889922 1055.8475868771372 546.3237470551596 1056.3201282486457 544.5094501446974 1056.7926696201541 542.6951532342354 1057.819798954208 541.1267228219358 1058.8469282882618 539.5582924096364 1060.3211048724497 538.3999435736928 1061.7952814566374 537.2415947377492 1063.56215861345 536.6146069070592 1065.3290357702626 535.9876190763691 1067.2036209949715 535.9576380423146 1069.0782062196804 535.9276570082601 1070.864229944416 536.4978217930209 1072.6502536691517 537.0679865777815 1074.1607187384698 538.1786007778842 1075.6711838077877 539.2892149779868 1076.7479441302066 540.823996993507 1077.8247044526254 542.3587790090271 1078.3550229381508 544.1570367577967 1078.885341423676 545.9552945065662 1078.813693586883 547.8287499275951 1078.7420457500896 549.702205348624 1078.0759331384033 551.4547071647862 1077.4098205267169 553.2072089809485 1076.2189853064176 554.6552697894765 1075.0281500861183 556.1033305980044 1073.4372730191217 557.0953380499941 1071.8463959521248 558.0873455019838 1070.0220422872958 558.5194361553476 1068.1976886224666 558.9515268087114 1066.3308686700952 558.778460657981 1064.4640487177242 558.6053945072507 1062.750219019617 557.8452916240929 1061.0363893215094 557.0851887409349 1059.654988299465 555.8176320978637 1058.2735872774203 554.5500754547926 1057.369247983101 552.9077785669402 1056.4649086887816 551.2654816790879 1056.1323156850253 549.4203934641366 1055.7997226812688 547.5753052491854 1056.0736985433646 545.7206069302968 1056.3476744054603 543.865908611408 1057.1995337883245 542.1957875921623 1058.0513931711885 540.5256665729166 1059.3919461725657 539.2149849648981 1060.7324991739429 537.9043033568796 1062.4213895407177 537.0902898704342 1064.1102799074924 536.2762763839886 1065.9706803724396 536.0441584460257 1067.8310808373867 535.8120405080628 1069.6682069807282 536.1861209279602 1071.5053331240697 536.5602013478579 1073.1268373536436 537.501313806905 1074.7483415832173 538.4424262659521 1075.9844519781518 539.852036041257 1077.220562373086 541.2616458165619 1077.9418578487298 542.9921663925493 1078.6631533243733 544.7226869685367 1078.7941140540229 546.5929323840876 1078.9250747836722 548.4631777996385 1078.9252352409794 548.4614469880325 1078.9253956982864 548.4597161764266 1075.7808733607135 554.283633166554 1072.6363510231406 560.1075501566813 1067.432337533967 565.0220745455542 1062.2283240447935 569.9365989344271 1054.3642471771373 576.399036133384 1046.500170309481 582.8614733323408 1040.81059750224 587.4949204073382 1035.1210246949988 592.1283674823356 1029.2453157171349 595.9705248162304 1023.3696067392711 599.8126821501252 1016.9080260508388 603.4800656869954 1010.4464453624063 607.1474492238658 999.3563960365507 609.2060895336056 988.266346710695 611.2647298433454 978.4904845303453 612.2361377835574 968.7146223499956 613.2075457237694 952.813435854958 614.2596805999347 936.9122493599205 615.3118154761 917.6582589749638 615.8621363709109 898.4042685900072 616.4124572657217 873.4691028739104 615.7902414679834 848.5339371578136 615.168025670245 822.0339989310589 614.6265363918059 795.5340607043044 614.0850471133667 770.1857374665719 612.759226501838 744.8374142288395 611.4334058903094 729.3910284123699 609.2532782645975 713.9446425959002 607.0731506388856 698.0375856879253 603.8676933171046 682.1305287799505 600.6622359953235 662.4919391224723 596.7720129313229 642.853349464994 592.8817898673225 619.9850158844365 586.5870562860108 597.116682303879 580.2923227046991 578.5074797948839 574.8234019564289 559.8982772858889 569.3544812081587 543.8932476701752 563.9178114564985 527.8882180544616 558.4811417048383 514.4698594569642 553.1487869349303 501.0515008594668 547.8164321650222 490.7386393574186 543.1273038021845 480.4257778553705 538.438175439347 474.5485572590975 534.8432909444803 468.67133666282456 531.2484064496134 461.81212378447117 527.4665717966441 454.95291090611784 523.6847371436749 448.6970914349519 519.9319945987967 442.441271963786 516.1792520539185 432.6887557666248 511.455701508837 422.9362395694637 506.7321509637555 422.02539766871314 506.1295432498672 421.11455576796254 505.5269355359789 420.37440092034177 504.7238540789996 419.634246072721 503.9207726220203 419.1077961127497 502.9638925539623 418.5813461527784 502.0070124859042 418.2991983768653 500.9519477212817 418.01705060095225 499.8968829566593 417.99560345109006 498.8049539091643 417.9741563012279 497.7130248616693 418.21465628677424 496.64769449884625 418.45515627232066 495.58236413602316 418.94362552281586 494.60554950861365 419.43209477331106 493.62873488120414 420.14014343296566 492.79720850124863 420.84819209262025 491.9656821212931 421.73466834006757 491.3277723410638 422.6211445875149 490.6898625608344 423.63452638160237 490.28264472673015 424.64790817568985 489.8754268926259 425.72929771893166 489.722568524298 426.8106872621734 489.5697101559701 427.8972341435074 489.68009538896774 428.9837810248414 489.79048062196534 430.01233508847326 490.15769386136026 431.04088915210514 490.52490710075523 431.04048397100826 490.5247044845155 Z" fill="hsl(39, 100%, 89%)"></path></svg>