<svg xmlns="http://www.w3.org/2000/svg" version="1.1" xmlns:xlink="http://www.w3.org/1999/xlink" xmlns:svgjs="http://svgjs.dev/svgjs" viewBox="0 0 800 800"><g transform="matrix(1,0,0,1,0,0)"><rect width="10" height="10" x="401" y="397" stroke-width="4" stroke="#ff3895" fill="none" opacity="0.1" transform="rotate(-208, 400, 400)"></rect><rect width="46.25" height="46.25" x="382.125" y="378.625" stroke-width="5.5" stroke="#f24ba6" fill="none" opacity="0.21250000000000002" transform="rotate(-182, 400, 400)"></rect><rect width="82.5" height="82.5" x="363.25" y="360.25" stroke-width="7" stroke="#e35ab5" fill="none" opacity="0.325" transform="rotate(-156, 400, 400)"></rect><rect width="118.75" height="118.75" x="344.375" y="341.875" stroke-width="8.5" stroke="#d467c4" fill="none" opacity="0.4375" transform="rotate(-130, 400, 400)"></rect><rect width="155" height="155" x="325.5" y="323.5" stroke-width="10" stroke="#c472d1" fill="none" opacity="0.55" transform="rotate(-104, 400, 400)"></rect><rect width="191.25" height="191.25" x="306.625" y="305.125" stroke-width="11.5" stroke="#b27cdd" fill="none" opacity="0.6625" transform="rotate(-78, 400, 400)"></rect><rect width="227.5" height="227.5" x="287.75" y="286.75" stroke-width="13" stroke="#9e86e9" fill="none" opacity="0.775" transform="rotate(-52, 400, 400)"></rect><rect width="263.75" height="263.75" x="268.875" y="268.375" stroke-width="14.5" stroke="#878ff4" fill="none" opacity="0.8875" transform="rotate(-26, 400, 400)"></rect><rect width="300" height="300" x="250" y="250" stroke-width="16" stroke="#6b97ff" fill="none" opacity="1" transform="rotate(0, 400, 400)"></rect></g></svg>